<?xml version="1.0" encoding="utf-8"?>
<!-- Generator: Adobe Illustrator 19.2.1, SVG Export Plug-In . SVG Version: 6.00 Build 0)  -->
<svg version="1.1" id="Слой_1" xmlns="http://www.w3.org/2000/svg" xmlns:xlink="http://www.w3.org/1999/xlink" x="0px" y="0px"
	 viewBox="0 0 587.3330078 99.2129059" style="enable-background:new 0 0 587.3330078 99.2129059;" xml:space="preserve">
<style type="text/css">
	.st0{clip-path:url(#SVGID_2_);}
	.st1{clip-path:url(#SVGID_2_);fill:#E30613;}
</style>
<polygon points="130.9550934,39.4024048 119.0510864,39.4024048 119.0510864,29.7654114 153.8590851,29.7654114 
	153.8590851,39.4024048 141.9560852,39.4024048 141.9560852,69.4454041 130.9550934,69.4454041 "/>
<polygon points="159.6421967,29.7657089 191.5561829,29.7657089 191.5561829,39.1147118 170.5261841,39.1147118 
	170.5261841,45.1287117 189.5711975,45.1287117 189.5711975,53.8047104 170.5261841,53.8047104 170.5261841,60.093708 
	191.8411865,60.093708 191.8411865,69.4457092 159.6421967,69.4457092 "/>
<polygon points="209.9488068,49.2657051 196.9067993,29.7657089 209.5518036,29.7657089 216.5798035,40.9317055 
	223.6697998,29.7657089 236.0238037,29.7657089 222.9898071,49.1537056 236.5948029,69.4457092 223.9517975,69.4457092 
	216.3518066,57.4877052 208.7017975,69.4457092 196.342804,69.4457092 "/>
<polygon points="241.7944946,29.7657089 252.7924805,29.7657089 252.7924805,44.6177101 266.9094849,44.6177101 
	266.9094849,29.7657089 277.9074707,29.7657089 277.9074707,69.4457092 266.9094849,69.4457092 266.9094849,54.3657112 
	252.7924805,54.3657112 252.7924805,69.4457092 241.7944946,69.4457092 "/>
<g>
	<defs>
		<rect id="SVGID_1_" y="-0.0000916" width="587.3330078" height="99.2129974"/>
	</defs>
	<clipPath id="SVGID_2_">
		<use xlink:href="#SVGID_1_"  style="overflow:visible;"/>
	</clipPath>
	<path class="st0" d="M284.5117798,49.6075058c0-11.3979988,9.1839905-20.6369934,21.4309998-20.6369934
		c12.2430115,0,21.3139954,9.128994,21.3139954,20.6369934c0,11.3950005-9.1849976,20.6360016-21.427002,20.6360016
		C293.5797729,70.2435074,284.5117798,61.1115074,284.5117798,49.6075058 M316.0307922,49.6075058
		c0-5.7269974-4.1370239-10.718998-10.2010193-10.718998c-6.0130005,0-10.0359802,4.8769989-10.0359802,10.718998
		c0,5.7270012,4.1389771,10.7100029,10.1489868,10.7100029C312.0047913,60.3175087,316.0307922,55.4465065,316.0307922,49.6075058"
		/>
	<polygon class="st0" points="333.9130859,29.7657089 344.9150696,29.7657089 344.9150696,44.6177101 359.0280762,44.6177101 
		359.0280762,29.7657089 370.0300598,29.7657089 370.0300598,69.4457092 359.0280762,69.4457092 359.0280762,54.3657112 
		344.9150696,54.3657112 344.9150696,69.4457092 333.9130859,69.4457092 	"/>
	<polygon class="st0" points="378.5849915,29.7657089 389.4719849,29.7657089 389.4719849,52.0987091 404.8369751,29.7657089 
		415.0929871,29.7657089 415.0929871,69.4457092 404.2099915,69.4457092 404.2099915,47.112709 388.8429871,69.4457092 
		378.5849915,69.4457092 	"/>
	<polygon class="st0" points="423.655304,29.7657089 434.6512756,29.7657089 434.6512756,45.8667107 448.3132935,29.7657089 
		461.3542786,29.7657089 446.3312988,46.8267097 461.8602905,69.4457092 448.655304,69.4457092 438.6802979,54.7087097 
		434.6512756,59.1837082 434.6512756,69.4457092 423.655304,69.4457092 	"/>
	<path class="st0" d="M461.9460144,49.6075058c0-11.3979988,9.1809998-20.6369934,21.4239807-20.6369934
		c12.2470093,0,21.3210144,9.128994,21.3210144,20.6369934c0,11.3950005-9.1870117,20.6360016-21.4300232,20.6360016
		C471.0130005,70.2435074,461.9460144,61.1115074,461.9460144,49.6075058 M493.4590149,49.6075058
		c0-5.7269974-4.131012-10.718998-10.1980286-10.718998c-6.0139771,0-10.0349731,4.8769989-10.0349731,10.718998
		c0,5.7270012,4.1349792,10.7100029,10.1439819,10.7100029C489.4379883,60.3175087,493.4590149,55.4465065,493.4590149,49.6075058"
		/>
	<path class="st0" d="M553.8277588,29.7661133h10.9960327v12.4659958h6.0089722c9.5270386,0,16.5,4.5390015,16.5,13.4920006
		c0,8.5649986-6.2359619,13.7209969-15.9279785,13.7209969h-17.5770264V29.7661133z M570.5518188,60.2071075
		c3.6259766,0,5.7819824-1.6449966,5.7819824-4.7609978c0-2.7779999-2.1560059-4.5930023-5.7260132-4.5930023h-5.7839966v9.3540001
		H570.5518188z"/>
	<polygon class="st1" points="25.4678001,67.7676086 25.4678001,37.6596069 14.1107998,37.6596069 14.1107998,29.7656097 
		52.6408005,29.7656097 70.9197998,54.8846092 70.9197998,22.3146133 93.2347946,-0.0003891 19.8428001,-0.0003891 
		-0.0002003,19.8416138 -0.0002003,93.2346039 0.0018005,93.2366028 0.0018005,93.2346039 	"/>
	<polygon class="st1" points="79.3692017,25.8165054 79.3692017,69.4455109 72.1111984,69.4455109 53.8311996,44.3265076 
		53.8311996,69.4455109 45.3812027,69.4455109 45.3812027,37.6595078 34.0272026,37.6595078 34.0272026,71.1565094 
		5.9752045,99.2075043 5.9701996,99.2075043 5.9752045,99.2125092 79.3692017,99.2075043 99.209198,79.3695068 99.209198,5.9755096 
			"/>
	<path class="st0" d="M514.4257813,29.7657089v17.4070015c0,4.1139984-0.4170532,10.0670013-3.132019,12.1709976
		c-1.2739868,0.9870033-3.3789978,1.743-4.7099915,1.743v9.3550034h1.0419922c3.803009,0,8.0649719-1.5299988,9.7019958-2.5690002
		c6.632019-4.2110023,7.4519653-12.2200012,7.4519653-21.269001V39.40271h9.493042v30.0429993h10.9989624V29.7657089H514.4257813z"
		/>
</g>
</svg>
