<?xml version="1.0" encoding="utf-8"?>
<!-- Generator: Adobe Illustrator 19.2.1, SVG Export Plug-In . SVG Version: 6.00 Build 0)  -->
<svg version="1.1" id="Слой_1" xmlns="http://www.w3.org/2000/svg" xmlns:xlink="http://www.w3.org/1999/xlink" x="0px" y="0px"
	 viewBox="0 0 30.5001068 30.3352966" style="enable-background:new 0 0 30.5001068 30.3352966;" xml:space="preserve">
<style type="text/css">
	.st0{clip-path:url(#SVGID_2_);fill:#010101;}
</style>
<g>
	<defs>
		<rect id="SVGID_1_" y="0.0002975" width="30.5" height="30.3349991"/>
	</defs>
	<clipPath id="SVGID_2_">
		<use xlink:href="#SVGID_1_"  style="overflow:visible;"/>
	</clipPath>
	<path class="st0" d="M22.0524006,27.1598969v1.5189991H1.6564007V1.6568966h16.2459984v3.8299999h4.1500015v6.144001h1.6569996
		v-6.144001l-5.7980003-5.4779987V-0.000103H1.2854004c-0.7099991,0-1.2849998,0.5760002-1.2849998,1.2859993v27.7639999
		c0,0.710001,0.5750008,1.2860012,1.2849998,1.2860012H22.423399c0.710001,0,1.2860012-0.5760002,1.2860012-1.2860012v-1.8899994
		H22.0524006z"/>
	<path class="st0" d="M13.9336996,17.0924969h-1.3570004v1.7980003h1.3570004c0.5599995,0,0.967-0.3560009,0.967-0.8990002
		S14.4936991,17.0924969,13.9336996,17.0924969"/>
	<path class="st0" d="M18.8444004,17.0924969h-1.1110001v3.9100018h1.1110001c1.2289982,0,1.9419994-0.882,1.9419994-1.9510002
		C20.7863998,17.9574966,20.107399,17.0924969,18.8444004,17.0924969"/>
	<path class="st0" d="M28.9442997,13.2834969H9.2782993c-0.8589993,0-1.5559998,0.698-1.5559998,1.5570002v8.415
		c0,0.8589993,0.6970005,1.5559998,1.5559998,1.5559998h19.6660004c0.8599987,0,1.5559998-0.6970005,1.5559998-1.5559998v-8.415
		C30.5002995,13.9814968,29.8042984,13.2834969,28.9442997,13.2834969 M14.0692997,19.7644958h-1.493v2.1110001H11.5843v-5.6559982
		h2.4849997c1.1870003,0,1.849,0.8139992,1.849,1.7719994S15.2482996,19.7644958,14.0692997,19.7644958 M18.8442993,21.8754959
		h-2.1030006v-5.6559982h2.1030006c1.7639999,0,2.9599991,1.1700001,2.9599991,2.8320007
		C21.8042984,20.7144966,20.6082993,21.8754959,18.8442993,21.8754959 M26.6382999,17.0924969h-2.8840008v1.4680004h2.8239994
		v0.8730011h-2.8239994v2.4419975h-0.9909992v-5.6559982h3.875V17.0924969z"/>
</g>
</svg>
