<?xml version="1.0" encoding="utf-8"?>
<!-- Generator: Adobe Illustrator 19.2.1, SVG Export Plug-In . SVG Version: 6.00 Build 0)  -->
<svg version="1.1" id="Слой_1" xmlns="http://www.w3.org/2000/svg" xmlns:xlink="http://www.w3.org/1999/xlink" x="0px" y="0px"
	 viewBox="0 0 33.953598 55.8193054" style="enable-background:new 0 0 33.953598 55.8193054;" xml:space="preserve">
<style type="text/css">
	
		.st0{clip-path:url(#SVGID_2_);fill:none;stroke:#000000;stroke-width:2.5;stroke-linecap:round;stroke-linejoin:round;stroke-miterlimit:10;}
</style>
<g>
	<defs>
		<rect id="SVGID_1_" y="0.0003052" width="33.9539986" height="55.8190002"/>
	</defs>
	<clipPath id="SVGID_2_">
		<use xlink:href="#SVGID_1_"  style="overflow:visible;"/>
	</clipPath>
	<path class="st0" d="M32.7040977,16.9768066c0-8.6850014-7.0409985-15.7270012-15.7269974-15.7270012
		S1.2491007,8.2918053,1.2491007,16.9768066c0,3.0060005,0.8599997,5.8050003,2.323,8.1940002l13.4159994,23.6779976
		l13.7280006-24.2289982c0.0409985-0.073,0.0839996-0.144001,0.1229992-0.217001l0.1149998-0.2019997h-0.0170002
		C32.0590973,22.0358086,32.7040977,19.5838051,32.7040977,16.9768066z M16.9771004,24.3338051
		c-4.2259998,0-7.6500006-3.4249992-7.6500006-7.6499977s3.4240007-7.6490021,7.6500006-7.6490021
		c4.2249985,0,7.6490002,3.4239998,7.6490002,7.6490021S21.2020988,24.3338051,16.9771004,24.3338051z"/>
	<path class="st0" d="M20.3052006,49.7767067c1.9789982,0.4440002,3.3099995,1.2739983,3.3099995,2.223999
		c0,1.4189987-2.9720001,2.5690002-6.6380005,2.5690002c-3.6669989,0-6.638999-1.1500015-6.638999-2.5690002
		c0-0.9210014,1.2510004-1.7290001,3.132-2.1819992"/>
</g>
</svg>
