<?xml version="1.0" encoding="utf-8"?>
<!-- Generator: Adobe Illustrator 19.2.1, SVG Export Plug-In . SVG Version: 6.00 Build 0)  -->
<svg version="1.1" id="Слой_1" xmlns="http://www.w3.org/2000/svg" xmlns:xlink="http://www.w3.org/1999/xlink" x="0px" y="0px"
	 viewBox="0 0 126.5090027 110.8330078" style="enable-background:new 0 0 126.5090027 110.8330078;" xml:space="preserve">
<style type="text/css">
	
		.st0{clip-path:url(#SVGID_2_);fill:none;stroke:#000000;stroke-width:4;stroke-linecap:round;stroke-linejoin:round;stroke-miterlimit:10;}
</style>
<g>
	<defs>
		<rect id="SVGID_1_" y="0.0000076" width="126.5090027" height="110.8330002"/>
	</defs>
	<clipPath id="SVGID_2_">
		<use xlink:href="#SVGID_1_"  style="overflow:visible;"/>
	</clipPath>
	<path class="st0" d="M119.0671997,108.8327103h-111.625c-2.9929962,0-5.4420013-2.4480057-5.4420013-5.4410019V29.251709
		c0-2.9929962,2.4490051-5.4420013,5.4420013-5.4420013h111.625c2.9929962,0,5.4419937,2.4490051,5.4419937,5.4420013v74.1399994
		C124.5091934,106.3847046,122.0601959,108.8327103,119.0671997,108.8327103z"/>
	<path class="st0" d="M124.5090027,45.0705109c0,10.2350006-8.375,18.6100006-18.6090012,18.6100006H20.6100006
		C10.3740005,63.6805115,2,55.3055115,2,45.0705109"/>
	<path class="st0" d="M38.8889008,23.2980042V7.9110107c0-3.2510071,2.6599998-5.9110031,5.9119987-5.9110031h36.9080009
		c3.2509995,0,5.9109955,2.659996,5.9109955,5.9110031v15.0459976"/>
	<polyline class="st0" points="49.7088013,23.4684067 49.7088013,13.2454071 76.8007965,13.2454071 76.8007965,23.4684067 	"/>
	<path class="st0" d="M70.9978027,53.1012077H55.5118027c-0.8810005,0-1.6020012-0.7209969-1.6020012-1.6019974v-8.4419975
		c0-0.8810043,0.7210007-1.602005,1.6020012-1.602005h15.4860001c0.8809967,0,1.6019974,0.7210007,1.6019974,1.602005v8.4419975
		C72.5998001,52.3802109,71.8787994,53.1012077,70.9978027,53.1012077z"/>
	<path class="st0" d="M37.0612984,64.4479065v13.3700027c0,0.9009933-0.7370033,1.637001-1.637001,1.637001H27.053297
		c-0.9009991,0-1.6379986-0.7360077-1.6379986-1.637001V64.4479065"/>
	<path class="st0" d="M99.4235992,64.4479065v13.3700027c0,0.9009933-0.7370071,1.637001-1.637001,1.637001H89.415596
		c-0.901001,0-1.6380005-0.7360077-1.6380005-1.637001V64.4479065"/>
</g>
</svg>
