<svg id="ROW_17" data-name="ROW 17" xmlns="http://www.w3.org/2000/svg" viewBox="0 0 67.12 67.12"><title>ico2</title><path d="M.326,5.374V31.911H31.852V.385H5.315A5,5,0,0,0,.326,5.374ZM7.951,14.5H14.2V8.25h4V14.5h6.25v4H18.2v6.25h-4V18.5H7.951Z" transform="translate(-0.326 -0.385)"/><path d="M35.921,67.505H62.458a5,5,0,0,0,4.989-4.988V35.979H35.921ZM43.14,46.377h16.5v4H43.14Zm0,7h16.5v4H43.14Z" transform="translate(-0.326 -0.385)"/><path d="M.326,62.517a5,5,0,0,0,4.989,4.988H31.852V35.979H.326ZM8.952,47.458l2.829-2.829,4.42,4.42,4.419-4.42,2.829,2.829-4.42,4.419,4.42,4.42L20.62,59.125,16.2,54.706l-4.42,4.419L8.952,56.3l4.42-4.42Z" transform="translate(-0.326 -0.385)"/><path d="M62.458.385H35.921V31.911H67.447V5.374A5,5,0,0,0,62.458.385ZM59.64,18.5H43.14v-4h16.5Z" transform="translate(-0.326 -0.385)"/></svg>