<?xml version="1.0" encoding="utf-8"?>
<!-- Generator: Adobe Illustrator 19.2.1, SVG Export Plug-In . SVG Version: 6.00 Build 0)  -->
<svg version="1.1" id="Слой_1" xmlns="http://www.w3.org/2000/svg" xmlns:xlink="http://www.w3.org/1999/xlink" x="0px" y="0px"
	 viewBox="0 0 39.5305023 39.5306091" style="enable-background:new 0 0 39.5305023 39.5306091;" xml:space="preserve">
<style type="text/css">
	.st0{clip-path:url(#SVGID_2_);}
</style>
<g>
	<defs>
		<rect id="SVGID_1_" y="-0.0003891" width="39.5309982" height="39.5309982"/>
	</defs>
	<clipPath id="SVGID_2_">
		<use xlink:href="#SVGID_1_"  style="overflow:visible;"/>
	</clipPath>
	<path class="st0" d="M13.5607004,19.2237091L13.5597,19.4447098l-0.0030003,1.894001h-1.4419994v12.5599976H27.415699V21.3387108
		h-1.4429989l-0.0009995-1.9140015l-0.0010014-0.2010002c0-3.4209995-2.7840004-6.2049999-6.2049999-6.2049999
		S13.5607004,15.8027096,13.5607004,19.2237091 M17.9696999,31.4577103l0.980999-4.1290016
		c-0.5819988-0.2970009-0.980999-0.9020004-0.980999-1.6009998c0-0.9890003,0.7999992-1.7919998,1.7880001-1.7959995h0.0149994
		c0.9890003,0.0039997,1.7880001,0.8069992,1.7880001,1.7959995c0,0.6989994-0.3990002,1.3039989-0.980999,1.6009998
		l0.9819984,4.1290016H17.9696999z M16.3057003,19.4497089v-0.2259998c0-1.907999,1.552-3.4599991,3.4599991-3.4599991
		s3.4589996,1.552,3.4589996,3.4599991v0.2049999l0.0030003,1.9100018H16.3027L16.3057003,19.4497089z"/>
	<path class="st0" d="M19.6328983,0.0009079L-0.000103,14.0709095v25.460001h39.5299988v-25.460001L19.6328983,0.0009079z
		 M36.8168983,36.8169098H2.7138977V15.4639091L19.643898,3.3309097l17.1730003,12.1450005V36.8169098z"/>
</g>
</svg>
