<?xml version="1.0" encoding="utf-8"?>
<!-- Generator: Adobe Illustrator 19.2.1, SVG Export Plug-In . SVG Version: 6.00 Build 0)  -->
<svg version="1.1" id="Слой_1" xmlns="http://www.w3.org/2000/svg" xmlns:xlink="http://www.w3.org/1999/xlink" x="0px" y="0px"
	 viewBox="0 0 10.6652985 18.412796" style="enable-background:new 0 0 10.6652985 18.412796;" xml:space="preserve">
<style type="text/css">
	.st0{clip-path:url(#SVGID_2_);}
</style>
<g>
	<defs>
		<rect id="SVGID_1_" y="-0.0002041" width="10.665" height="18.4130001"/>
	</defs>
	<clipPath id="SVGID_2_">
		<use xlink:href="#SVGID_1_"  style="overflow:visible;"/>
	</clipPath>
	<path class="st0" d="M7.2551999,13.3792953c0.9779992-0.2229996,1.9099994-0.6089993,2.7589993-1.1429996
		c0.651-0.4090004,0.8460007-1.2679996,0.4370003-1.9199991c-0.408-0.6500006-1.2670002-0.8460007-1.9180002-0.4380007
		c-0.0009995,0-0.0009995,0.0010004-0.0019999,0.0010004c-1.9459996,1.224-4.4519997,1.2229996-6.3979998,0
		C1.4842,9.4702959,0.6251998,9.6642962,0.2151999,10.3152962c0,0.0010004-0.0009999,0.0010004-0.0009999,0.0010004
		c-0.4100003,0.651-0.2140002,1.5099993,0.4359999,1.9199991c0.849,0.5340004,1.7820001,0.9200001,2.7590001,1.1429996
		l-2.6559999,2.6560001c-0.5440001,0.5440006-0.5440001,1.4260006,0,1.9699993
		c0.5439997,0.5430012,1.4249997,0.5430012,1.9689999-0.0009995l2.6099997-2.6099997l2.6110001,2.6109991
		c0.5429997,0.5430012,1.4229999,0.5440006,1.9660001,0.0010014c0.0009995,0,0.0009995-0.0010014,0.0019999-0.0010014
		c0.5430002-0.5419998,0.5450001-1.421999,0.0030003-1.9659996l-0.0030003-0.0029984L7.2551999,13.3792953"/>
	<path class="st0" d="M5.3323002,0.0000973c-2.6210001,0-4.7519999,2.132-4.7519999,4.7519989
		s2.1309998,4.7510004,4.7519999,4.7510004S10.0843,7.372097,10.0843,4.7520962
		C10.0843,2.1310978,7.9533,0.0000973,5.3323002,0.0000973 M5.3323002,6.7190962c-1.0840001,0-1.967-0.8829994-1.967-1.967
		c0-1.085,0.8829999-1.9679995,1.967-1.9679995c1.085,0,1.9679999,0.8829994,1.9679999,1.9679995
		C7.3003001,5.8360968,6.4173002,6.7190962,5.3323002,6.7190962"/>
</g>
</svg>
