<?xml version="1.0" encoding="utf-8"?>
<!-- Generator: Adobe Illustrator 19.2.1, SVG Export Plug-In . SVG Version: 6.00 Build 0)  -->
<svg version="1.1" id="Слой_1" xmlns="http://www.w3.org/2000/svg" xmlns:xlink="http://www.w3.org/1999/xlink" x="0px" y="0px"
	 viewBox="0 0 21.7835999 12.9369965" style="enable-background:new 0 0 21.7835999 12.9369965;" xml:space="preserve">
<style type="text/css">
	.st0{clip-path:url(#SVGID_2_);fill-rule:evenodd;clip-rule:evenodd;fill:#010101;}
</style>
<g>
	<defs>
		<rect id="SVGID_1_" y="-0.0000038" width="21.7840004" height="12.9370003"/>
	</defs>
	<clipPath id="SVGID_2_">
		<use xlink:href="#SVGID_1_"  style="overflow:visible;"/>
	</clipPath>
	<path class="st0" d="M21.2838993,0.875596c0.1509991-0.5049992,0-0.8759995-0.7210007-0.8759995h-2.3829994
		c-0.6060009,0-0.8850002,0.3210001-1.0370007,0.6750002c0,0-1.2119999,2.9530001-2.9279995,4.8719993
		c-0.5559998,0.5560002-0.8079996,0.7319999-1.1119995,0.7319999c-0.151,0-0.3699999-0.1759996-0.3699999-0.6809998V0.875596
		c0-0.6049995-0.1760006-0.8759995-0.6810007-0.8759995H8.3068991c-0.3779993,0-0.6059999,0.2810001-0.6059999,0.5480003
		c0,0.5749998,0.8579998,0.7069998,0.9460001,2.323v3.5089993c0,0.7689996-0.1379995,0.9089999-0.4420004,0.9089999
		c-0.8069992,0-2.7729998-2.967-3.9379997-6.3619995c-0.2290001-0.6599998-0.4580002-0.927-1.066-0.927H0.8169003
		c-0.6810017,0-0.8170013,0.3210001-0.8170013,0.6750002c0,0.6309996,0.8080006,3.7620001,3.762001,7.9019995
		c1.9689989,2.8269997,4.7439995,4.3610001,7.2689991,4.3610001c1.5139999,0,1.7020006-0.3410006,1.7020006-0.927V9.8725958
		c0-0.6809998,0.1429996-0.816,0.6229992-0.816c0.3530006,0,0.9590006,0.1760006,2.3730001,1.54
		c1.6159992,1.6160002,1.8829994,2.3410006,2.7910004,2.3410006h2.3839989c0.6800003,0,1.0209999-0.3410006,0.8239994-1.0130005
		c-0.2150002-0.6689997-0.9860001-1.6409998-2.0089989-2.7930002c-0.5559998-0.6560001-1.3889999-1.3629994-1.6420002-1.7169995
		c-0.3530006-0.454-0.2520008-0.6560001,0-1.0599999C18.0768986,6.3545961,20.9808979,2.2645969,21.2838993,0.875596"/>
</g>
</svg>
