<?xml version="1.0" encoding="utf-8"?>
<!-- Generator: Adobe Illustrator 19.2.1, SVG Export Plug-In . SVG Version: 6.00 Build 0)  -->
<svg version="1.1" id="Слой_1" xmlns="http://www.w3.org/2000/svg" xmlns:xlink="http://www.w3.org/1999/xlink" x="0px" y="0px"
	 viewBox="0 0 74.9195099 68.1667023" style="enable-background:new 0 0 74.9195099 68.1667023;" xml:space="preserve">
<style type="text/css">
	.st0{fill:none;stroke:#000000;stroke-width:2.5;stroke-linecap:round;stroke-linejoin:round;stroke-miterlimit:10;}
	.st1{clip-path:url(#SVGID_2_);fill:none;stroke:#000000;stroke-width:2.5;stroke-linecap:round;stroke-linejoin:round;}
	.st2{fill:none;stroke:#000000;stroke-width:2.5;stroke-linecap:round;stroke-linejoin:round;stroke-dasharray:3.809,5.7129998;}
	.st3{clip-path:url(#SVGID_4_);fill:none;stroke:#000000;stroke-width:2.5;stroke-linecap:round;stroke-linejoin:round;}
	
		.st4{fill:none;stroke:#000000;stroke-width:2.5;stroke-linecap:round;stroke-linejoin:round;stroke-dasharray:3.7360001,5.6040001;}
	.st5{fill:none;stroke:#000000;stroke-width:2.5;stroke-linecap:round;stroke-linejoin:round;}
	
		.st6{clip-path:url(#SVGID_6_);fill:none;stroke:#000000;stroke-width:2.5;stroke-linecap:round;stroke-linejoin:round;stroke-miterlimit:10;}
</style>
<polygon points="66.7259979,50.3512039 68.673996,47.8672028 72.635994,51.8292007 74.9199982,49.5462036 70.9569931,45.5832024 
	73.4419937,43.7702026 62.4279976,38.9342041 "/>
<polyline class="st0" points="52.2038002,26.1407013 52.2038002,58.0687027 12.6297989,58.0687027 12.6297989,26.1407013 "/>
<g>
	<defs>
		<rect id="SVGID_1_" y="-0.0002975" width="74.9189987" height="68.1669998"/>
	</defs>
	<clipPath id="SVGID_2_">
		<use xlink:href="#SVGID_1_"  style="overflow:visible;"/>
	</clipPath>
	<line class="st1" x1="2.3239" y1="24.3701019" x2="3.9178998" y2="23.1621056"/>
</g>
<line class="st2" x1="8.4708996" y1="19.7115021" x2="28.9589005" y2="4.1835022"/>
<g>
	<defs>
		<rect id="SVGID_3_" y="-0.0002975" width="74.9189987" height="68.1669998"/>
	</defs>
	<clipPath id="SVGID_4_">
		<use xlink:href="#SVGID_3_"  style="overflow:visible;"/>
	</clipPath>
	<polyline class="st3" points="31.2350998,2.4580002 32.8290977,1.2500076 34.4060974,2.4790039 	"/>
</g>
<line class="st4" x1="38.827301" y1="5.9229012" x2="58.7212982" y2="21.4199028"/>
<line class="st5" x1="60.9314003" y1="23.1411018" x2="62.5093994" y2="24.3701019"/>
<rect x="25.2849998" y="31.5217018" class="st0" width="14.2639999" height="14.2639999"/>
<g>
	<defs>
		<rect id="SVGID_5_" y="-0.0002975" width="74.9189987" height="68.1669998"/>
	</defs>
	<clipPath id="SVGID_6_">
		<use xlink:href="#SVGID_5_"  style="overflow:visible;"/>
	</clipPath>
	<path class="st6" d="M37.4054985,21.2500038c0.0549965-0.2999992,0.0879974-0.6069984,0.0879974-0.9229965
		c0-2.8040009-2.2729988-5.0770035-5.0769997-5.0770035c-2.8029976,0-5.0769978,2.2730026-5.0769978,5.0770035
		c0,0.3159981,0.032999,0.6229973,0.0879993,0.9229965H37.4054985z"/>
	<line class="st6" x1="1.2502" y1="66.9169998" x2="63.5831985" y2="66.9169998"/>
</g>
</svg>
