<svg id="ROW_17" data-name="ROW 17" xmlns="http://www.w3.org/2000/svg" viewBox="0 0 64 76.13"><title>ico5</title><path id="PEN_1" data-name="PEN 1" d="M18.7,41.217,38.635,11.482l9.925,6.624L28.629,47.841ZM45.279,1.57A2.989,2.989,0,0,1,49.421.748L54.384,4.06a2.976,2.976,0,0,1,.82,4.134l-4.983,7.434L40.3,9Zm-28.824,53.7L17.026,43.7l9.926,6.625Z" transform="translate(-0.5 -0.245)" fill-rule="evenodd"/><path d="M61.5,18.375h-8l-4,6h9v37H23.257L18.5,66.132V61.375H6.5v-37H24.167l4-6H3.5a3,3,0,0,0-3,3v43a3,3,0,0,0,3,3h9v6a3.021,3.021,0,0,0,.061.605,2.933,2.933,0,0,0,.122.393c.02.055.03.116.053.17a2.848,2.848,0,0,0,.177.326c.035.06.061.126.1.184a2.929,2.929,0,0,0,.334.4c.012.013.021.029.033.041a2.99,2.99,0,0,0,2.084.874c.013,0,.024,0,.037,0a2.994,2.994,0,0,0,2.121-.878l8.122-8.122H61.5a3,3,0,0,0,3-3v-43A3,3,0,0,0,61.5,18.375Z" transform="translate(-0.5 -0.245)" fill-rule="evenodd"/></svg>