<?xml version="1.0" encoding="utf-8"?>
<!-- Generator: Adobe Illustrator 19.2.1, SVG Export Plug-In . SVG Version: 6.00 Build 0)  -->
<svg version="1.1" id="Слой_1" xmlns="http://www.w3.org/2000/svg" xmlns:xlink="http://www.w3.org/1999/xlink" x="0px" y="0px"
	 viewBox="0 0 10.0644989 25.0413055" style="enable-background:new 0 0 10.0644989 25.0413055;" xml:space="preserve">
<style type="text/css">
	.st0{clip-path:url(#SVGID_2_);}
</style>
<g>
	<g>
		<defs>
			<rect id="SVGID_1_" y="0.0003052" width="10.0640001" height="25.0410004"/>
		</defs>
		<clipPath id="SVGID_2_">
			<use xlink:href="#SVGID_1_"  style="overflow:visible;"/>
		</clipPath>
		<path class="st0" d="M9.9771996,22.8865051c-0.1640005-0.5669994-0.3360004-1.1329994-0.4900007-1.7029991
			c-0.1869993-0.6920013-0.3569994-1.387001-0.5339994-2.0810013c-0.0480003-0.1869984-0.0840006-0.3769989-0.1430006-0.5599995
			c-0.0959997-0.2999992-0.2999992-0.4899998-0.6209993-0.5310001c-0.158-0.0200005-0.3179998-0.0459995-0.4759998-0.0359993
			c-0.5470004,0.0359993-1.0930004,0.0939999-1.6410003,0.1259995c-0.3339996,0.0200005-0.671,0.0200005-1.0049996,0.007
			c-0.2550001-0.0089989-0.4430003-0.1450005-0.54-0.3869991c-0.0680003-0.1669998-0.1420002-0.3320007-0.1890001-0.5039997
			c-0.1220002-0.4449997-0.2360001-0.8920002-0.3429999-1.3400002c-0.4180002-1.7440004-0.5280004-3.5030003-0.2740002-5.283
			c0.1399999-0.9870005,0.402-1.9450006,0.6560001-2.9049997c0.0380001-0.1439991,0.1149998-0.2789993,0.1760001-0.4160004
			c0.0829997-0.1879997,0.2309999-0.2989998,0.4309998-0.3249989c0.1700001-0.0230007,0.3439999-0.0490017,0.513-0.0370007
			c0.5439997,0.0380001,1.085,0.105999,1.6289997,0.1359997c0.3510003,0.019001,0.704,0.007,1.0539994-0.0179996
			C8.4941988,7.006506,8.7031994,6.8165073,8.8031988,6.5195065c0.052-0.1539993,0.092-0.3129997,0.1280003-0.4729996
			c0.0480003-0.2210007,0.0740004-0.448,0.132-0.664999c0.1859999-0.684,0.3830004-1.3640003,0.5740004-2.0460014
			c0.1349993-0.4890003,0.2699995-0.9769993,0.401-1.4669991c0.0749998-0.2790012-0.0120001-0.5020008-0.2309999-0.6940002
			c-0.4540005-0.3999996-0.9630003-0.710001-1.5-0.9790001C8.0191994,0.0525074,7.7131996-0.0154934,7.3941994,0.0025063
			c-1.1789999,0.0670013-2.2729998,0.401001-3.2639999,1.0510006c-0.198,0.1310005-0.382,0.2840004-0.572,0.427L3.2191997,1.8195076
			c-0.1140003,0.1429996-0.2319999,0.282999-0.3400002,0.4309998c-0.335,0.4589996-0.6079998,0.9529991-0.842,1.4689999
			c-0.362,0.7959995-0.7380004,1.5879993-1.0639997,2.3990002C0.4831991,7.3375072,0.2531996,8.6215057,0.1271992,9.9245062
			c-0.1919994,1.9939995-0.1719999,3.9860001,0.0930004,5.9749994c0.2060003,1.5470009,0.6560001,3.0170002,1.3500004,4.4139996
			c0.3139992,0.6330013,0.5999994,1.2810001,0.9399996,1.901001c0.6940002,1.2629986,1.7709999,2.0639992,3.1339998,2.4960003
			c0.48,0.1529999,0.9689999,0.2619991,1.4720001,0.316c0.5050001,0.0539989,0.9729996-0.0380001,1.415-0.2910004
			c0.4189997-0.2390003,0.8339996-0.4829998,1.1999998-0.8000011c0.0279999-0.0240002,0.0609999-0.0419998,0.092-0.0620003
			c0.0179996-0.0179996,0.0360003-0.0359993,0.0529995-0.0539989c0.2330008-0.2350006,0.2040005-0.5130005,0.1330004-0.7980003
			C9.9981995,22.9765053,9.9901991,22.9305058,9.9771996,22.8865051"/>
	</g>
</g>
</svg>
