<?xml version="1.0" encoding="utf-8"?>
<!-- Generator: Adobe Illustrator 19.2.1, SVG Export Plug-In . SVG Version: 6.00 Build 0)  -->
<svg version="1.1" id="Слой_1" xmlns="http://www.w3.org/2000/svg" xmlns:xlink="http://www.w3.org/1999/xlink" x="0px" y="0px"
	 viewBox="0 0 365 394.0329895" style="enable-background:new 0 0 365 394.0329895;" xml:space="preserve">
<style type="text/css">
	.st0{clip-path:url(#SVGID_2_);}
</style>
<g>
	<defs>
		<rect id="SVGID_1_" width="365" height="394.0329895"/>
	</defs>
	<clipPath id="SVGID_2_">
		<use xlink:href="#SVGID_1_"  style="overflow:visible;"/>
	</clipPath>
	<path class="st0" d="M334.4668884,220.855484c-9.7050171,80.076004-66.9179993,85.1339874-77.4590149,88.5999908
		c-4.492981,1.4750061-46.2229919,12.098999-98.6719818,8.5849915L101.47789,381.0544739l-0.0590057-72.6119995l-0.447998-0.117981
		c-76.3859863-21.7200012-73.8160095-103.1520081-72.95401-145.8970032
		c0.8600159-42.743988,8.7020264-77.7640076,32.0130005-101.3119812
		c41.8490143-38.8170166,128.07901-33.0160217,128.07901-33.0160217
		c72.8259888,0.3300171,107.7279968,22.7690125,115.8169861,30.2919922
		C330.7868652,81.9515076,344.4778748,138.3024902,334.4668884,220.855484 M323.7948914,38.40448
		c-9.5630188-9.0079956-48.2160034-37.7319946-134.3059998-38.1219788c0,0-101.5119934-6.2730103-151.0020142,40.2089844
		C10.9418945,68.6974792,1.2498779,109.9564819,0.223877,161.1434784
		c-1.0139771,51.1860046-2.3469849,147.0749969,87.9530182,173.0869904l0.0829926,0.0230103l-0.0479889,39.6790161
		c0,0-0.5650024,16.071991,9.7519989,19.3379822c12.4989929,3.9729919,19.8329926-8.2409973,31.7669983-21.4020081
		c6.5549927-7.2149963,15.5869904-17.8289795,22.4029999-25.940979
		c61.7639923,5.2949829,109.2609711-6.8510132,114.6489716-8.6430054
		c12.4760132-4.1499939,83.0350037-13.3950195,94.5090027-109.2840118
		C373.1308899,129.1294861,355.5498657,66.6105042,323.7948914,38.40448"/>
	<path class="st0" d="M268.717804,232.7994843c-0.0350037-0.0349884-11.57901-9.8809967-17.2160034-14.1259918
		c-5.3170013-3.996994-13.7960052-9.3740082-18.5359955-12.1090088c-8.5020142-4.8470001-17.1920013-1.8049927-20.776001,2.9590149
		l-7.4520111,9.5869904c-3.8209991,4.8580017-9.7059937,4.0429993-11.25,3.7259979
		c-11.0129852-2.7599945-22.7220001-9.644989-34.7029877-21.2489929
		c-12.1210022-11.7080078-19.4560089-23.9349976-22.072998-36.6470032l-0.1890106-0.8379974
		c-0.7069855-5.223999,0.1660004-7.6410065,2.2990112-11.201004l0.4019928-0.3309937
		c5.0339966-4.681015,14.3619995-10.3760071,15.6109924-15.8009949c3.6680145-9.42099-12.2509918-29.0650024-14.5259857-32.5320129
		c0,0-11.5800018-15.32901-15.6950073-18.2539978c-4.4459991-3.7019958-11.3320007-5.8129883-18.2769928-1.5440063
		l-0.3529968,0.2590027c-19.9520111,13.5010071-27.1800079,21.2610168-25.2110138,32.8399963l1.026001,4.6570129
		c10.1170044,31.8959961,29.6549988,65.9029999,58.7920074,96.1839905
		c28.8179932,29.9029999,59.9949951,47.8150024,90.723999,60.2189941
		c7.9829865,2.6530151,16.2599945,0.3650208,24.7509918-6.8859863l0.1409912-0.1060181
		c6.5090027-6.0849915,11.6619873-12.5939636,15.506012-19.5629883l0.0350037-0.1399994
		C275.4867859,244.532486,274.2247925,237.5514984,268.717804,232.7994843"/>
	<path class="st0" d="M220.8818054,162.9537964c-1.2150116,0-2.2290039-0.9779968-2.2870026-2.2289886
		c-0.401001-8.2649994-2.6300049-14.5970001-6.6269989-18.8300018c-3.9750061-4.197998-9.9290009-6.5440063-17.6880035-6.9689941
		c-1.2610016-0.0710144-2.2400055-1.1799927-2.1690063-2.4760132c0.0700073-1.2969971,1.1430054-2.2869873,2.4170074-2.2279968
		c8.9609985,0.4949951,15.9299927,3.3250122,20.7409973,8.4060059c4.7879944,5.0709991,7.4519958,12.4169922,7.9120026,21.8619995
		c0.0589905,1.2969971-0.9199982,2.3939972-2.1820068,2.4639893H220.8818054"/>
	<path class="st0" d="M243.6161957,170.7565918h-0.0600128c-1.2610016-0.0349884-2.2630005-1.1079865-2.2399902-2.4049988
		c0.3539886-15.871994-4.2799988-29.2910004-13.7839966-39.9029846
		c-4.7280121-5.2950134-10.4710083-9.4810181-17.0859985-12.4400024
		c-6.6270142-2.9599915-14.3510132-4.7869873-22.9340057-5.4360046c-1.2620087-0.0950012-2.2169952-1.2259827-2.1230011-2.5109863
		c0.0939941-1.2969971,1.1909943-2.276001,2.4530029-2.1820068c18.3239899,1.3800049,32.8150024,7.8999939,43.0859985,19.3970032
		c10.3179932,11.5209961,15.3649902,26.0589905,14.9869995,43.1809845
		C245.880188,169.7415924,244.8531952,170.7565918,243.6161957,170.7565918"/>
	<path class="st0" d="M266.8955078,180.075882c-1.2630005,0-2.2880249-1.0369873-2.3000183-2.3339996
		c-0.1059875-14.0309906-2.2170105-26.7200012-6.2969971-37.7319946
		c-4.0559845-10.9320068-10.1749878-20.5409851-18.193985-28.5589905
		c-8.0299988-8.007019-17.1570129-14.1149902-27.1330109-18.1600037c-9.9989929-4.0559998-21.1409912-6.1549988-33.121994-6.2369995
		c-1.2619934-0.0119934-2.2870026-1.0740051-2.2749939-2.3710022c0.0110016-1.29599,1.0370026-2.3339844,2.298996-2.3339844
		h0.0110016c25.1519928,0.1879883,46.4830017,8.8429871,63.427002,25.7409973
		c8.5019989,8.4889832,14.9869843,18.664978,19.2789764,30.2569885c4.2690125,11.519989,6.4860229,24.772995,6.6040039,39.3600006
		c0.0119934,1.2969971-1.0149841,2.3580017-2.276001,2.368988H266.8955078z"/>
</g>
</svg>
