<?xml version="1.0" encoding="utf-8"?>
<!-- Generator: Adobe Illustrator 19.2.1, SVG Export Plug-In . SVG Version: 6.00 Build 0)  -->
<svg version="1.1" id="Слой_1" xmlns="http://www.w3.org/2000/svg" xmlns:xlink="http://www.w3.org/1999/xlink" x="0px" y="0px"
	 viewBox="0 0 40.8332977 57.0729065" style="enable-background:new 0 0 40.8332977 57.0729065;" xml:space="preserve">
<style type="text/css">
	
		.st0{clip-path:url(#SVGID_2_);fill:none;stroke:#000000;stroke-width:2.5;stroke-linecap:round;stroke-linejoin:round;stroke-miterlimit:10;}
</style>
<g>
	<defs>
		<rect id="SVGID_1_" y="-0.0000954" width="40.8330002" height="57.0730019"/>
	</defs>
	<clipPath id="SVGID_2_">
		<use xlink:href="#SVGID_1_"  style="overflow:visible;"/>
	</clipPath>
	<path class="st0" d="M32.2266998,55.8226051H8.606699c-4.0629997,0-7.3569984-3.2929993-7.3569984-7.355999V8.6066093
		c0-4.0629997,3.2939987-7.3570023,7.3569984-7.3570023h23.6200008c4.0629997,0,7.355999,3.2940025,7.355999,7.3570023v39.8599968
		C39.5826988,52.5296059,36.2896996,55.8226051,32.2266998,55.8226051z"/>
	<rect x="6.4489975" y="7.9169044" class="st0" width="27.9360008" height="6.8330002"/>
	<circle class="st0" cx="10.3758488" cy="23.9998055" r="3.4167504"/>
	<circle class="st0" cx="20.4163475" cy="23.9998055" r="3.4167504"/>
	<circle class="st0" cx="30.457098" cy="23.9998055" r="3.4170008"/>
	<circle class="st0" cx="10.3758488" cy="34.9998093" r="3.4167504"/>
	<circle class="st0" cx="20.4163475" cy="34.9998093" r="3.4167504"/>
	<circle class="st0" cx="30.457098" cy="34.9998093" r="3.4170008"/>
	<circle class="st0" cx="10.3758488" cy="46.0000572" r="3.4165001"/>
	<circle class="st0" cx="20.4163475" cy="46.0000572" r="3.4165001"/>
	<circle class="st0" cx="30.457098" cy="46.0000572" r="3.4167504"/>
</g>
</svg>
