<?xml version="1.0" encoding="utf-8"?>
<!-- Generator: Adobe Illustrator 19.2.1, SVG Export Plug-In . SVG Version: 6.00 Build 0)  -->
<svg version="1.1" id="Слой_1" xmlns="http://www.w3.org/2000/svg" xmlns:xlink="http://www.w3.org/1999/xlink" x="0px" y="0px"
	 viewBox="0 0 63.9999084 51.0001068" style="enable-background:new 0 0 63.9999084 51.0001068;" xml:space="preserve">
<style type="text/css">
	.st0{clip-path:url(#SVGID_2_);fill-rule:evenodd;clip-rule:evenodd;}
</style>
<g>
	<defs>
		<rect id="SVGID_1_" y="0.0001068" width="64" height="51"/>
	</defs>
	<clipPath id="SVGID_2_">
		<use xlink:href="#SVGID_1_"  style="overflow:visible;"/>
	</clipPath>
	<path class="st0" d="M63.7305984,11.2290077l0.0050011,0.0020027l-9,19.9999981
		c-0.4440002,0.9859982-1.4039993,1.6869984-2.5359993,1.7619991l-25.9190006,1.7290001l1.4980011,4.2779999h18.2209988
		c3.3139992,0,6,2.6870003,6,6s-2.6860008,6-6,6c-3.3129997,0-6-2.6870003-6-6h-18c0,3.3129997-2.6860008,6-5.999999,6
		c-3.3130007,0-6-2.6870003-6-6s2.6869993-6,6-6h5.4219999l-11.5500002-33H2.9996004c-1.6559992,0-3.000001-1.3429985-3.000001-3
		c0-1.6559982,1.3440018-3,3.000001-3h9c1.309,0,2.4109993,0.8440018,2.8209991,2.0130005l0.0110006-0.0029984l1.7469997,4.9899979
		h44.4209976c1.6580009,0,3,1.3440018,3,3C63.9995995,10.4390106,63.9006004,10.8540077,63.7305984,11.2290077
		 M18.6786003,13.0000076l5.5450001,15.8450012l25.7800007-1.7180004l6.3569984-14.1270008H18.6786003z"/>
</g>
</svg>
