<?xml version="1.0" encoding="utf-8"?>
<!-- Generator: Adobe Illustrator 19.2.1, SVG Export Plug-In . SVG Version: 6.00 Build 0)  -->
<svg version="1.1" id="Слой_1" xmlns="http://www.w3.org/2000/svg" xmlns:xlink="http://www.w3.org/1999/xlink" x="0px" y="0px"
	 viewBox="0 0 21.5005035 21.4945984" style="enable-background:new 0 0 21.5005035 21.4945984;" xml:space="preserve">
<style type="text/css">
	.st0{clip-path:url(#SVGID_2_);}
</style>
<g>
	<defs>
		<rect id="SVGID_1_" y="-0.0004025" width="21.5009995" height="21.4950008"/>
	</defs>
	<clipPath id="SVGID_2_">
		<use xlink:href="#SVGID_1_"  style="overflow:visible;"/>
	</clipPath>
	<path class="st0" d="M-0.0001001,8.7917986V8.0237989c0.0060005-0.0390005,0.0139999-0.0769997,0.0190001-0.1160002
		c0.0509996-0.3940001,0.0780001-0.7930002,0.158-1.1820002c0.4160004-2.020999,1.4400005-3.6789999,3.0650005-4.9449987
		C4.9869003,0.4217987,6.9769001-0.155201,9.1848993,0.035799c0.816,0.0699997,1.6020002,0.2689991,2.3580008,0.5809994
		c1.5779991,0.6520004,2.8739996,1.6700001,3.874999,3.0500011c1.3329992,1.8369989,1.8919992,3.8849993,1.6010008,6.1449995
		c-0.144001,1.1119995-0.5090008,2.1539993-1.0830002,3.1189995c-0.0489998,0.0830002-0.0500002,0.1289997,0.0229998,0.2010002
		c1.6409998,1.6359997,3.2769995,3.2769995,4.9199991,4.9130011c0.2860012,0.2849998,0.5400009,0.5829983,0.6219997,0.993v0.2409973
		c-0.0609989,0.2920017-0.2449989,0.5020008-0.4509983,0.703001c-0.3730011,0.3640003-0.7380009,0.7360001-1.1070004,1.1050014
		c-0.1599998,0.1599998-0.3430004,0.2809982-0.5620003,0.343998c-0.0820007,0.0240021-0.1669998,0.0430012-0.25,0.0640011
		h-0.2409992c-0.0130005-0.0060005-0.0270004-0.0150013-0.0400009-0.0160007
		c-0.3309994-0.0369987-0.5960007-0.1959991-0.828001-0.4279995c-1.6709995-1.6760006-3.3439989-3.3479996-5.0129986-5.0249996
		c-0.0749998-0.0750008-0.1230001-0.073-0.2090006-0.0250015c-1.448,0.8110008-2.999999,1.170002-4.657999,1.0660019
		C7.3009,17.0137978,6.4869003,16.8377991,5.7068996,16.5247993c-2.2269993-0.8910007-3.8619995-2.4250011-4.9049997-4.585001
		c-0.3909998-0.8099995-0.6370001-1.6659994-0.7390003-2.5619993C0.0409002,9.1827993,0.0208998,8.9867992-0.0001001,8.7917986
		 M14.5049,8.6427984c0.007-0.4239998-0.0510006-0.8829994-0.1700001-1.3329992
		c-0.4240007-1.5960007-1.3450003-2.8379993-2.7160006-3.7399998C10.2888994,2.6938,8.8298998,2.3817997,7.2609,2.6977997
		C5.9019003,2.9717999,4.7678995,3.6487999,3.9028997,4.7318001C2.7168999,6.2187986,2.3149004,7.9057989,2.7638998,9.7617989
		c0.3570004,1.4729996,1.1950006,2.6449995,2.408,3.5389996c1.4360003,1.059,3.0360003,1.441,4.7919998,1.0580006
		C12.6008997,13.7837982,14.4968996,11.4067984,14.5049,8.6427984"/>
</g>
</svg>
