<?xml version="1.0" encoding="utf-8"?>
<!-- Generator: Adobe Illustrator 19.2.1, SVG Export Plug-In . SVG Version: 6.00 Build 0)  -->
<svg version="1.1" id="Слой_1" xmlns="http://www.w3.org/2000/svg" xmlns:xlink="http://www.w3.org/1999/xlink" x="0px" y="0px"
	 viewBox="0 0 118.1460114 109.625" style="enable-background:new 0 0 118.1460114 109.625;" xml:space="preserve">
<style type="text/css">
	
		.st0{clip-path:url(#SVGID_2_);fill:none;stroke:#000000;stroke-width:4;stroke-linecap:round;stroke-linejoin:round;stroke-miterlimit:10;}
</style>
<g>
	<defs>
		<rect id="SVGID_1_" width="118.1460037" height="109.625"/>
	</defs>
	<clipPath id="SVGID_2_">
		<use xlink:href="#SVGID_1_"  style="overflow:visible;"/>
	</clipPath>
	<path class="st0" d="M41.5546989,23.125V4.8920059C41.5546989,3.3010025,42.8556976,2,44.4466972,2h4.0909996
		c1.5909996,0,2.8920021,1.3010025,2.8920021,2.8920059V23.125"/>
	<path class="st0" d="M41.25,8.625c0,0-15.625-1.25-15.625,19.625C18.875,32,20,37.5,20,37.5s8.5,1.25,27,1.25"/>
	<path class="st0" d="M52.6796989,8.625c0,0,15.6249962-1.25,15.6249962,19.625c6.75,3.75,5.625,9.25,5.625,9.25
		s-8.5,1.25-26.9999962,1.25"/>
	<path class="st0" d="M66.75,39.125v5c0,0,4.5,0.875,3.375,6.125c-0.875,3.25-1.875,4.875-5,5.25
		c-0.5,7.625-7.375,11.125-7.875,11.125s0,10.625,0,10.625s7,5.75,18.625,9.75c7.1409988,2.4570007,14.875,10.25,14.875,20.625H2
		C2,97.25,9.7340012,89.4570007,16.875,87C28.5,83,35.5,77.25,35.5,77.25s0.5-10.625,0-10.625s-7.375-3.5-7.875-11.125
		c-3.125-0.375-4.125-2-5-5.25C21.5,45,26,44.125,26,44.125v-5"/>
	<path class="st0" d="M73.9375,22.125V6.4810028C73.9375,5.1170044,75.0544968,4,76.4184952,4h3.5100021
		c1.3649979,0,2.4820023,1.1170044,2.4820023,2.4810028V22.125"/>
	<path class="st0" d="M73.6763,9.6840973c0,0-5.6450043-0.4519958-9.6080017,4.125"/>
	<path class="st0" d="M83.482399,9.6840973c0,0,13.4059982-1.0719986,13.4059982,16.8380051
		c5.7919998,3.2179947,4.8259964,7.935997,4.8259964,7.935997s-11.2929993,1.072998-27.1650009,1.072998"/>
	<path class="st0" d="M95.5547028,35.8529968v4.2900009c0,0,3.8610001,0.7509995,2.8959961,5.2550049
		c-0.7509995,2.7879944-1.6090012,4.1829948-4.2900009,4.503994c-0.4290009,6.5419998-6.3279953,9.545002-6.7569962,9.545002
		s0,9.1159973,0,9.1159973s6.0059967,4.9339981,15.9799957,8.3660049
		c6.1269989,2.1079941,12.7630005,8.7939911,12.7630005,17.6959991H86.9997025"/>
</g>
</svg>
