<svg id="ROW_17" data-name="ROW 17" xmlns="http://www.w3.org/2000/svg" viewBox="0 0 58.847 52.638"><title>ico3</title><path d="M52.746.375H7.074A6.606,6.606,0,0,0,.487,6.962V38.721a6.606,6.606,0,0,0,6.587,6.587H25.539v7.7l7.7-7.7h19.5a6.607,6.607,0,0,0,6.588-6.587V6.962A6.607,6.607,0,0,0,52.746.375ZM31.788,36.4a3.257,3.257,0,0,1-4.614-.01,3.108,3.108,0,0,1-.963-2.274,3.275,3.275,0,0,1,6.55,0A3.084,3.084,0,0,1,31.788,36.4Zm6.406-15.046a18.709,18.709,0,0,1-4.97,4.517,2.315,2.315,0,0,0-.983,1.889H26.635a13.5,13.5,0,0,1,.442-2.553,5.431,5.431,0,0,1,.839-1.754A8.215,8.215,0,0,1,29.8,21.828a12.5,12.5,0,0,0,3.033-2.649,3.6,3.6,0,0,0,.7-2.032,2.6,2.6,0,0,0-.982-2.091,3.874,3.874,0,0,0-2.562-.819,3.7,3.7,0,0,0-2.707.973,3.545,3.545,0,0,0-.992,2.65H20.355a8.633,8.633,0,0,1,2.667-6.724A10.233,10.233,0,0,1,30.18,8.708a9.674,9.674,0,0,1,6.675,2.322,7.883,7.883,0,0,1,2.611,6.194A7.461,7.461,0,0,1,38.194,21.356Z" transform="translate(-0.487 -0.375)"/></svg>