<?xml version="1.0" encoding="utf-8"?>
<!-- Generator: Adobe Illustrator 19.2.1, SVG Export Plug-In . SVG Version: 6.00 Build 0)  -->
<svg version="1.1" id="Слой_1" xmlns="http://www.w3.org/2000/svg" xmlns:xlink="http://www.w3.org/1999/xlink" x="0px" y="0px"
	 viewBox="0 0 18.819397 18.819397" style="enable-background:new 0 0 18.819397 18.819397;" xml:space="preserve">
<style type="text/css">
	.st0{clip-path:url(#SVGID_2_);fill:#010101;}
</style>
<g>
	<defs>
		<rect id="SVGID_1_" y="0.0003967" width="18.8190002" height="18.8190002"/>
	</defs>
	<clipPath id="SVGID_2_">
		<use xlink:href="#SVGID_1_"  style="overflow:visible;"/>
	</clipPath>
	<path class="st0" d="M9.4097004,1.6953983c2.5129995,0,2.8099995,0.0100002,3.802,0.0549984
		c0.9179993,0.0420017,1.4159994,0.1950016,1.7480001,0.3240013c0.4389992,0.1700001,0.7519999,0.3739986,1.0809984,0.7029991
		c0.3299999,0.3299999,0.5340004,0.6440001,0.7040005,1.0819998c0.1289997,0.3319998,0.2830009,0.8299999,0.3250008,1.7480001
		c0.0450001,0.993,0.0539989,1.2889996,0.0539989,3.802s-0.0089989,2.8109999-0.0539989,3.8029995
		c-0.0419998,0.9169998-0.1960011,1.415-0.3250008,1.7469997c-0.1700001,0.4390001-0.3740005,0.7530003-0.7040005,1.0820007
		c-0.3289986,0.3290005-0.6419992,0.532999-1.0809984,0.7040005c-0.3320007,0.1289997-0.8300009,0.2819996-1.7480001,0.323
		c-0.9920006,0.0459995-1.2890005,0.0559998-3.802,0.0559998s-2.8099999-0.0100002-3.802-0.0559998
		c-0.9179997-0.0410004-1.4159999-0.1940002-1.7469997-0.323c-0.4400001-0.1710014-0.7530003-0.375-1.0820003-0.7040005
		c-0.3299999-0.3290005-0.5339999-0.6430006-0.704-1.0820007c-0.1290002-0.3319998-0.283-0.8299999-0.3239999-1.7469997
		c-0.046-0.9919996-0.0550003-1.29-0.0550003-3.8029995s0.0090003-2.809,0.0550003-3.802
		c0.0409999-0.9180002,0.1949997-1.4160004,0.3239999-1.7480001c0.1700001-0.4379997,0.3740001-0.7519999,0.704-1.0819998
		c0.329-0.3290005,0.6420002-0.532999,1.0820003-0.7029991c0.3309999-0.1289997,0.829-0.2819996,1.7469997-0.3240013
		C6.5997005,1.7053986,6.8967004,1.6953983,9.4097004,1.6953983 M9.4097004,0.0003967
		c-2.5560002,0-2.8759999,0.0110016-3.8790002,0.0570011C4.5287004,0.1023979,3.8447003,0.2613983,3.2457004,0.4933968
		c-0.618,0.2410011-1.1430001,0.5630016-1.6669998,1.0860004C1.0557003,2.1033974,0.7347002,2.6273975,0.4937,3.2453966
		c-0.2319994,0.5990009-0.3909998,1.283-0.4369993,2.2840004C0.0107002,6.5333967-0.0002995,6.8543968-0.0002995,9.4093971
		c0,2.5559998,0.0109997,2.8759995,0.0570002,3.8799992c0.0459995,1.0010004,0.2049999,1.6860008,0.4369993,2.2840004
		c0.2410002,0.618,0.5620003,1.1439991,1.0850005,1.6660004c0.5239997,0.5240002,1.0489998,0.8459988,1.6669998,1.0860004
		c0.599,0.2329998,1.283,0.3919983,2.2849998,0.4379997c1.0030003,0.0459995,1.323,0.0559998,3.8790002,0.0559998
		s2.8759995-0.0100002,3.8789997-0.0559998C14.2907,18.7173958,14.9747,18.5583973,15.5737,18.3253975
		c0.6189995-0.2400017,1.1429996-0.5620003,1.6669998-1.0860004c0.5230007-0.5220013,0.8439999-1.0480003,1.085001-1.6660004
		c0.2319984-0.5979996,0.3919983-1.283,0.4369984-2.2840004c0.0460014-1.0039997,0.0570011-1.3239994,0.0570011-3.8799992
		c0-2.5550003-0.0109997-2.8760004-0.0570011-3.8800001c-0.0450001-1.0010004-0.2049999-1.6849995-0.4369984-2.2840004
		c-0.2410011-0.6179991-0.5620003-1.1419992-1.085001-1.6659994C16.7166996,1.0563984,16.1926994,0.7343979,15.5737,0.4933968
		c-0.599-0.2319984-1.283-0.3909988-2.2849998-0.4359989C12.2856998,0.0113983,11.9657001,0.0003967,9.4097004,0.0003967"/>
	<path class="st0" d="M9.4097004,4.5772972c-2.6680002,0-4.8319998,2.1630001-4.8319998,4.8319998
		s2.1639996,4.8319998,4.8319998,4.8319998s4.8319998-2.1630001,4.8319998-4.8319998S12.0776997,4.5772972,9.4097004,4.5772972
		 M9.4097004,12.5462971c-1.7320004,0-3.1370001-1.4039993-3.1370001-3.1370001
		c0-1.7319994,1.4049997-3.1359997,3.1370001-3.1359997s3.1370001,1.4040003,3.1370001,3.1359997
		C12.5467005,11.1422977,11.1416998,12.5462971,9.4097004,12.5462971"/>
	<path class="st0" d="M15.5620003,4.3870974c0,0.6230001-0.5060005,1.1290007-1.1290007,1.1290007
		c-0.6239996,0-1.1300001-0.5060005-1.1300001-1.1290007c0-0.6239996,0.5060005-1.1299992,1.1300001-1.1299992
		C15.0559998,3.2570982,15.5620003,3.7630978,15.5620003,4.3870974"/>
</g>
</svg>
