<svg id="ROW_17" data-name="ROW 17" xmlns="http://www.w3.org/2000/svg" viewBox="0 0 64 61"><title>ico1</title><path id="HOME" d="M64.4,32.375a2.992,2.992,0,0,1-5.04,2.189l-.007.007L32.474,7.694h0L32.4,7.62h0L5.506,34.512h0a3,3,0,1,1-4.184-4.3L30.236,1.3A2.989,2.989,0,0,1,32.4.375h0c.053,0,.106,0,.158,0l.025,0,.135.011h.009a3,3,0,0,1,1.866.937l0,0L46.4,13.133V10.375a3,3,0,0,1,6,0v8.758l11.2,11.2-.007.008A2.981,2.981,0,0,1,64.4,32.375Zm-6,5v21a3,3,0,0,1-3,3h-6v-24h-12v24H9.4a3,3,0,0,1-3-3v-21l26-26Zm-31,0h-12v12h12Z" transform="translate(-0.398 -0.375)" fill-rule="evenodd"/></svg>