<?xml version="1.0" encoding="utf-8"?>
<!-- Generator: Adobe Illustrator 19.2.1, SVG Export Plug-In . SVG Version: 6.00 Build 0)  -->
<svg version="1.1" id="Слой_1" xmlns="http://www.w3.org/2000/svg" xmlns:xlink="http://www.w3.org/1999/xlink" x="0px" y="0px"
	 viewBox="0 0 163.026001 156.4160004" style="enable-background:new 0 0 163.026001 156.4160004;" xml:space="preserve">
<style type="text/css">
	.st0{clip-path:url(#SVGID_2_);fill-rule:evenodd;clip-rule:evenodd;}
</style>
<g>
	<defs>
		<rect id="SVGID_1_" width="163.026001" height="156.4160004"/>
	</defs>
	<clipPath id="SVGID_2_">
		<use xlink:href="#SVGID_1_"  style="overflow:visible;"/>
	</clipPath>
	<path class="st0" d="M78.6855927,32.471405c12.4590073,0,24.1830063,5.5119934,32.7670059,14.1279984v0.0289993
		c0-4.1320038,2.7889938-7.2519989,6.6660004-7.2519989l0.9779968-0.0130005c6.0439987,0,7.2919998,5.7249985,7.2809982,7.538002
		l0.0320053,64.3699951c-0.4220047,4.2139969,4.3559952,6.3839951,7.0029984,3.6809998
		c10.3379974-10.6200027,22.6989899-54.6019974-6.427002-80.0830002
		c-27.1470032-23.7559967-63.5709953-19.8450012-82.9309998-6.4859924
		c-20.5830002,14.1959915-33.7709961,45.6279984-20.973999,75.147995
		c13.9550018,32.2039948,53.8830032,41.8039856,77.6039963,32.2180023
		c12.0200043-4.8400116,17.5699997,11.4029999,5.0920029,16.7129974
		c-18.8529968,8.022995-71.3319931,7.2250061-95.8519974-35.2600021
		C-6.6394043,88.5384064-5.7564011,38.0874023,38.1716003,11.9454041
		C71.7775955-8.0536041,116.089592-2.5155945,142.8005981,25.3824005c27.92099,29.1710052,26.29599,83.7900009-0.9380035,105.029007
		c-12.348999,9.644989-30.6760025,0.2639923-30.5569992-13.8000031l-0.1340027-4.590004
		c-8.5919952,8.5190048-20.0269928,13.5039978-32.4860001,13.5039978c-24.6069946,0-46.2709961-21.663002-46.2709961-46.2799911
		C32.4145966,54.3814011,54.078598,32.471405,78.6855927,32.471405 M109.6735992,77.4673996L109.6735992,77.4673996
		C108.7425919,59.4393997,95.3675995,48.596405,79.2105942,48.596405H78.592598
		c-18.6409988,0-28.9860001,14.6669998-28.9860001,31.3269958c0,18.6430054,12.507,30.423996,28.9219971,30.423996
		c18.2809982,0,30.3150024-13.3949966,31.1870041-29.2449951L109.6735992,77.4673996z"/>
</g>
</svg>
