<?xml version="1.0" encoding="utf-8"?>
<!-- Generator: Adobe Illustrator 19.2.1, SVG Export Plug-In . SVG Version: 6.00 Build 0)  -->
<svg version="1.1" id="Слой_1" xmlns="http://www.w3.org/2000/svg" xmlns:xlink="http://www.w3.org/1999/xlink" x="0px" y="0px"
	 viewBox="0 0 24 16.8556976" style="enable-background:new 0 0 24 16.8556976;" xml:space="preserve">
<style type="text/css">
	.st0{clip-path:url(#SVGID_2_);fill:#010101;}
</style>
<g>
	<defs>
		<rect id="SVGID_1_" y="-0.0003033" width="24" height="16.8560009"/>
	</defs>
	<clipPath id="SVGID_2_">
		<use xlink:href="#SVGID_1_"  style="overflow:visible;"/>
	</clipPath>
	<path class="st0" d="M23.9716988,5.9350977c-0.0899982-1.3629999-0.105999-3.1050005-0.9959984-4.5059996
		c-0.4150009-0.5450001-1.1200008-0.9680004-1.8720016-1.1089993c-0.941-0.1790009-4.9569988-0.3200016-9.0949984-0.3200016
		c-4.1479998,0-8.1540003,0.1410007-9.0950003,0.3200016c-0.6020002,0.1119995-1.1379995,0.3839989-1.599,0.8079987
		C0.3397007,2.0340977,0.2677002,3.5840979,0.1217003,4.8900976c-0.1790009,2.3660002-0.1450005,4.4829998,0,7.073
		c0.0930004,1.1479998,0.1590004,1.6169996,0.3290005,2.1820002c0.1969995,0.6779995,0.4509993,1.1660004,0.7709999,1.4860001
		c0.4129992,0.4230003,0.9779997,0.7149982,1.6269999,0.8459988c0.9589996,0.1980019,2.5199995,0.2730007,7.0909996,0.3570023
		c3.8120003,0.0619984,7.1709986-0.0030022,11.1259985-0.3000011c0.6320019-0.1089993,1.2160015-0.4080009,1.6740017-0.8560009
		c0.2919998-0.2919998,0.4609985-0.5549994,0.6589985-1.0539989c0.3200016-0.7900009,0.4320011-1.5510006,0.573-3.7049999
		C24.0096989,10.2700977,24.0096989,6.5830975,23.9716988,5.9350977 M15.9967003,8.1820974L15.9967003,8.1820974
		c-0.0010004,0-0.0020008-0.0009995-0.0040007-0.0019999c-0.0009995,0.0010004-0.0019999,0.0019999-0.0030003,0.0019999H15.9967003
		c-1.816,1.007-4.2049999,2.1350002-6.4710007,3.3669996V4.7960978c0.0030003,0.0019999,0.007,0.0039997,0.0100002,0.0050001
		V4.7870979c2.1520004,1.1280003,4.2580004,2.2179995,6.4569998,3.3929996c0.0040007-0.0019999,0.0089998-0.0050001,0.0129995-0.007
		L15.9967003,8.1820974z"/>
</g>
</svg>
