<?xml version="1.0" encoding="utf-8"?>
<!-- Generator: Adobe Illustrator 19.2.1, SVG Export Plug-In . SVG Version: 6.00 Build 0)  -->
<svg version="1.1" id="Слой_1" xmlns="http://www.w3.org/2000/svg" xmlns:xlink="http://www.w3.org/1999/xlink" x="0px" y="0px"
	 viewBox="0 0 178.3480072 179.7389984" style="enable-background:new 0 0 178.3480072 179.7389984;" xml:space="preserve">
<style type="text/css">
	.st0{clip-path:url(#SVGID_2_);fill-rule:evenodd;clip-rule:evenodd;fill:#231F20;}
</style>
<g>
	<defs>
		<rect id="SVGID_1_" width="178.3480072" height="179.7389984"/>
	</defs>
	<clipPath id="SVGID_2_">
		<use xlink:href="#SVGID_1_"  style="overflow:visible;"/>
	</clipPath>
	<path class="st0" d="M90.7911911-0.0000916c-48.3519974,0-87.5510025,39.197998-87.5510025,87.5549927
		c0,16.5410004,4.590004,32.0130005,12.5620041,45.2099915l-15.8019943,46.973999l48.4739914-15.5189972
		c12.5440063,6.9350128,26.9690018,10.8910065,42.3170013,10.8910065c48.359993,0,87.5569992-39.2030029,87.5569992-87.5559998
		C178.3481903,39.1979065,139.1511841-0.0000916,90.7911911-0.0000916 M90.7911911,160.4409027
		c-14.8010025,0-28.5879974-4.4400024-40.0979996-12.0510101l-28.0100021,8.9660034l9.1040039-27.0650024
		c-8.7249985-12.0189972-13.8799973-26.7819901-13.8799973-42.7359924c0-40.1920013,32.6969986-72.8899994,72.8839951-72.8899994
		c40.1939926,0,72.8889999,32.697998,72.8889999,72.8899994C163.680191,127.7449036,130.9851837,160.4409027,90.7911911,160.4409027
		 M131.8441925,107.4488983c-2.1950073-1.2019958-12.9760056-7.0209961-14.9980011-7.8429947
		c-2.0220032-0.8199997-3.4960022-1.2480011-5.0719986,0.9339981c-1.5750046,2.1760025-6.0470047,7.0500031-7.4029999,8.4930038
		c-1.3610001,1.4429932-2.6710052,1.5779953-4.8670044,0.3729935c-2.1889954-1.197998-9.3040009-3.8299942-17.5559998-11.762001
		c-6.4199982-6.1729965-10.6309967-13.6569977-11.8529968-15.9409943c-1.2220001-2.2870026-0.0080032-3.4520035,1.1520004-4.5230026
		c1.0429993-0.9649963,2.3339996-2.5289993,3.5009995-3.7910004c1.163002-1.2610016,1.5739975-2.1780014,2.3740005-3.6419983
		c0.7999954-1.4640045,0.4779968-2.7830048-0.0410004-3.9220047c-0.5179977-1.135994-4.5750046-12.3040009-6.2700043-16.8469925
		c-1.6940002-4.5429993-3.5819931-3.8670044-4.8869934-3.9190063c-1.3040009-0.0449982-2.7870026-0.2899933-4.2770004-0.3439941
		c-1.4899979-0.0570068-3.9339981,0.4129944-6.064003,2.5709991c-2.1319962,2.1589966-8.1090012,7.348999-8.5199966,18.348999
		c-0.4120026,10.9929962,7.1969986,21.9199982,8.2579956,23.4509964
		c1.0620041,1.5340042,14.5299988,25.3710022,36.9120026,35.1740036c22.385994,9.798996,22.5039978,6.8119965,26.6110001,6.5919952
		c4.1089935-0.2160034,13.4249878-4.9140015,15.4839935-10.0589981c2.0590057-5.1469955,2.223999-9.6209946,1.701004-10.5739975
		C135.5041809,109.2658997,134.0371857,108.6479034,131.8441925,107.4488983"/>
</g>
</svg>
